<svg width="100" height="21" fill="none" xmlns="http://www.w3.org/2000/svg"><g opacity=".8"><g clip-path="url(#a)"><path d="M20 10.995c0-5.523-4.477-10-10-10s-10 4.477-10 10c0 4.991 3.657 9.128 8.438 9.879v-6.988h-2.54v-2.89h2.54V8.791c0-2.506 1.492-3.89 3.777-3.89 1.093 0 2.238.195 2.238.195v2.46h-1.26c-1.243 0-1.63.772-1.63 1.563v1.875h2.773l-.443 2.89h-2.33v6.989c4.78-.75 8.437-4.888 8.437-9.879Z" fill="#1D2130"/></g><g clip-path="url(#b)"><path d="M46.292 19.12c7.545 0 11.673-6.253 11.673-11.673 0-.176-.004-.356-.012-.531A8.332 8.332 0 0 0 60 4.79a8.09 8.09 0 0 1-2.355.645 4.125 4.125 0 0 0 1.804-2.27 8.247 8.247 0 0 1-2.605.996 4.108 4.108 0 0 0-6.994 3.742 11.653 11.653 0 0 1-8.456-4.284 4.107 4.107 0 0 0 1.27 5.475 4.108 4.108 0 0 1-1.86-.512v.051a4.101 4.101 0 0 0 3.293 4.024 4.078 4.078 0 0 1-1.851.07 4.112 4.112 0 0 0 3.831 2.852A8.23 8.23 0 0 1 40 17.277a11.64 11.64 0 0 0 6.292 1.843Z" fill="#1D2130"/></g><g clip-path="url(#c)"><path d="M98.52.995H81.476C80.66.995 80 1.64 80 2.437V19.55c0 .797.66 1.445 1.477 1.445h17.042c.817 0 1.481-.648 1.481-1.441V2.437c0-.797-.664-1.442-1.48-1.442ZM85.933 18.038h-2.97V8.491h2.97v9.547ZM84.449 7.19a1.72 1.72 0 1 1-.006-3.439 1.72 1.72 0 0 1 .006 3.44Zm12.594 10.848h-2.965v-4.64c0-1.106-.02-2.532-1.543-2.532-1.543 0-1.777 1.207-1.777 2.453v4.72h-2.961V8.49h2.844v1.305h.039c.394-.75 1.363-1.543 2.804-1.543 3.004 0 3.559 1.976 3.559 4.547v5.238Z" fill="#1D2130"/></g></g><defs><clipPath id="a"><path fill="#fff" transform="translate(0 .995)" d="M0 0h20v20H0z"/></clipPath><clipPath id="b"><path fill="#fff" transform="translate(40 .995)" d="M0 0h20v20H0z"/></clipPath><clipPath id="c"><path fill="#fff" transform="translate(80 .995)" d="M0 0h20v20H0z"/></clipPath></defs></svg>